<?xml version="1.0" encoding="UTF-8" standalone="no"?>
<!DOCTYPE svg PUBLIC "-//W3C//DTD SVG 1.1//EN" "http://www.w3.org/Graphics/SVG/1.1/DTD/svg11.dtd">
<svg width="100%" height="100%" viewBox="0 0 1671 1667" version="1.1" xmlns="http://www.w3.org/2000/svg" xmlns:xlink="http://www.w3.org/1999/xlink" xml:space="preserve" xmlns:serif="http://www.serif.com/" style="fill-rule:evenodd;clip-rule:evenodd;stroke-linejoin:round;stroke-miterlimit:2;">
    <g transform="matrix(4.16667,0,0,4.16667,0,0)">
        <path d="M295.086,328.735C295.086,312.174 281.66,298.747 265.098,298.747C281.66,298.747 295.086,285.321 295.086,268.759C295.086,285.321 308.513,298.747 325.075,298.747C308.513,298.747 295.086,312.174 295.086,328.735ZM202.744,291.75C235.504,286.144 280.514,268.381 291.751,202.743C295.669,260.106 252.882,295.178 202.744,291.75ZM231.146,200C231.146,217.174 217.174,231.146 200,231.146C195.747,231.146 191.691,230.287 187.994,228.736L187.994,228.739L187.993,228.739C176.763,224.029 168.854,212.921 168.854,200C168.854,192.766 171.34,186.106 175.493,180.813C169.258,187.069 165.695,195.914 166.484,205.386C167.538,218.036 176.053,228.309 187.335,232.233L187.337,232.233C181.589,266.869 200,294.479 200,294.479C147.821,294.479 105.522,252.179 105.522,200C105.522,147.821 147.821,105.522 200,105.522C234.967,105.522 265.474,124.532 281.811,152.766L373.184,100.012C338.6,40.243 274.02,0 200,0C89.543,0 0,89.543 0,200C0,310.457 89.543,400 200,400C310.457,400 400,310.457 400,200L231.146,200ZM198.13,183.536C209.547,182.647 218.502,192.945 216.049,204.122C215.41,194.026 208.042,185.561 198.13,183.536ZM200,179C188.402,179 179,188.402 179,200C179,211.598 188.402,221 200,221C211.598,221 221,211.598 221,200C221,188.402 211.598,179 200,179Z" style="fill:rgb(3,4,4);fill-rule:nonzero;"/>
    </g>
</svg>
